<svg xmlns="http://www.w3.org/2000/svg" viewBox="-12.6 -20.1 151.2 151.2">
<path d="m6.2836 0.039757a7.2336 7.2336 0 0 0-2.8668 0.8667 6.8169 6.8169 0 0 0-3.4168 5.9335 7.0669 7.0669 0 0 0 0.71669 3.0834l33.634 58.452 10.9-18.851 17.734-30.701-10.867-18.784z" fill="#72bf44"/>
<path d="m52.118 0.039757 28.601 49.435h21.667l22.917-39.701a6.8002 6.8002 0 0 0-5.7835-9.7337z" fill="#00ae9d"/>
<path d="m100.82 49.475h-55.569l-10.9 18.901 23.001 39.668a7.2169 7.2169 0 0 0 2.2001 2.0001 6.6669 6.6669 0 0 0 3.4168 0.9167 6.8836 6.8836 0 0 0 5.7169-3.0834l33.768-58.335z" fill="#bfd730"/>
</svg>